<svg xmlns="http://www.w3.org/2000/svg" width="99" height="20" viewBox="0 0 99 20">
    <g fill="none" fill-rule="evenodd">
        <g fill="#9B41BF">
            <g>
                <g>
                    <g>
                        <path d="M13.123 11.653l4.918 1.474c-.33 1.367-.851 2.51-1.561 3.427-.71.917-1.592 1.609-2.645 2.076-1.053.466-2.393.7-4.02.7-1.973 0-3.586-.285-4.837-.854-1.25-.569-2.33-1.57-3.239-3.003C.831 14.04.377 12.205.377 9.97c0-2.98.799-5.272 2.396-6.873C4.371 1.497 6.632.696 9.555.696c2.288 0 4.086.459 5.395 1.376 1.309.917 2.281 2.325 2.917 4.225L12.912 7.39c-.173-.548-.355-.95-.545-1.203-.314-.426-.698-.754-1.152-.983-.454-.23-.962-.344-1.523-.344-1.272 0-2.247.508-2.924 1.523C6.256 7.137 6 8.32 6 9.933c0 1.998.306 3.368.917 4.109.611.74 1.47 1.111 2.576 1.111 1.074 0 1.885-.298 2.435-.896.549-.598.947-1.466 1.195-2.604zm8.018-1.634c0-2.94.825-5.229 2.477-6.866 1.652-1.638 3.951-2.457 6.9-2.457 3.022 0 5.35.805 6.986 2.414 1.635 1.609 2.453 3.863 2.453 6.762 0 2.104-.358 3.83-1.072 5.177-.714 1.347-1.747 2.395-3.097 3.145-1.35.749-3.032 1.123-5.047 1.123-2.048 0-3.743-.323-5.085-.97s-2.43-1.67-3.264-3.07c-.834-1.401-1.251-3.153-1.251-5.258zm5.61.025c0 1.818.342 3.124 1.023 3.918.681.794 1.608 1.191 2.78 1.191 1.206 0 2.14-.389 2.8-1.166.66-.778.991-2.175.991-4.19 0-1.694-.345-2.933-1.034-3.715-.69-.782-1.625-1.173-2.806-1.173-1.131 0-2.04.397-2.725 1.192-.685.794-1.028 2.108-1.028 3.943zm14.423-9.04h5.871l4.088 12.958 4.026-12.959h5.698L54.118 19.01h-6.082L41.174 1.003zm22.597 0h15.038v3.844h-9.414V7.71h8.733v3.672h-8.733v3.55h9.686v4.078h-15.31V1.003zm18.138 0h17.057V5.45h-5.723v13.56h-5.611V5.45h-5.723V1.003z" transform="translate(-750 -202) translate(405 180) translate(320) translate(25 22)"/>
                    </g>
                </g>
            </g>
        </g>
    </g>
</svg>
